# xmcd
#
# Track frame offsets:
#	150
#	18592
#	30016
#	45652
#	57139
#	72744
#
# Disc length: 1180 seconds
#
# Revision: 1
# Processed by: cddbd v1.5.1PL0 Copyright (c) Steve Scherf et al.
# Submitted via: audiograbber 1.83.01
#
DISCID=47049a06
DTITLE=CMA - CDX 360 - Dec 2004
DYEAR=2004
DGENRE=Country
TTITLE0=Rebecca Lynn Howard - That's Why I Hate Pontiacs
TTITLE1=Kacey Jones - Waitin' For The Guy To Die
TTITLE2=Rick Monroe - I Remember The Music
TTITLE3=Billy Don Burns - Rock On
TTITLE4=Hilljack - Texas 101
TTITLE5=Vince Hatfield - You've Been Keepin' Me Up Nights
EXTD=
EXTT0=
EXTT1=
EXTT2=
EXTT3=
EXTT4=
EXTT5=
PLAYORDER=
